<svg width="911" height="722" viewBox="0 0 911 722" fill="none" xmlns="http://www.w3.org/2000/svg">
<g clip-path="url(#clip0)">
<path d="M743.685 -154.268C599.679 -121.131 555.118 0.190843 540.995 58.7937C530.055 104.183 504.134 146.635 464.666 174.795C418.558 207.69 358.423 214.89 305.635 231.955C258.683 247.134 206.804 273.597 189.564 323.221C177.527 357.868 175.497 429.921 120.388 462.695C101.835 473.727 68.7097 484.141 62.0672 508.072C55.0801 533.249 65.3894 555.668 99.3601 566.228C131.126 576.1 178.889 561.673 242.152 566.228C295.474 570.068 300.478 621.869 338.685 648.843C385.442 681.85 450.693 657.592 503.406 672.675C541.601 683.607 575.521 705.848 614.332 714.278C670.598 726.498 729.396 722.574 785.666 712.513C853.098 700.46 973.079 650.615 1030.04 538.11C1069.74 496.25 1173.45 -9.81365 1030.04 -145.37C988.604 -184.532 846.213 -218.242 791.659 -201.683" fill="#D9E8FF"/>
<path d="M631.836 494.718H589.646V294.815H631.836V494.718Z" fill="#BFEAA6"/>
<path d="M699.201 494.718H636.526V305.42H699.201V494.718Z" fill="#BFEAA6"/>
<path d="M527.079 494.836H463.434V292.982H527.079V494.836Z" fill="#BFEAA6"/>
<path d="M585.534 494.836H530.798V317.441H585.534V494.836Z" fill="#BFEAA6"/>
<path d="M458.621 494.836H334.075V336.137H458.621V494.836Z" fill="#BFEAA6"/>
<path d="M574.153 313.56H542.134V288.34H574.153V313.56Z" fill="#BFEAA6"/>
<path d="M520.878 289.718H469.335V266.53H520.878V289.718Z" fill="#BFEAA6"/>
<path d="M621.531 266.529V291.039H585.58V315.557H581.304V266.529H621.531Z" fill="#BFEAA6"/>
<path d="M543.139 494.836H469.126V346.998H543.139V494.836Z" fill="#90DD42"/>
<path d="M479.827 367.733H472.145V355.341H479.827V367.733Z" fill="#EDFFDF"/>
<path d="M489.875 367.733H482.193V355.341H489.875V367.733Z" fill="#EDFFDF"/>
<path d="M499.924 367.733H492.242V355.341H499.924V367.733Z" fill="#EDFFDF"/>
<path d="M543.138 494.836H522.641V346.998H543.138V494.836Z" fill="#84B333"/>
<path d="M509.973 367.733H502.291V355.341H509.973V367.733Z" fill="#EDFFDF"/>
<path d="M520.022 367.733H512.34V355.341H520.022V367.733Z" fill="#EDFFDF"/>
<path d="M531.834 367.733H525.412V355.341H531.834V367.733Z" fill="#EDFFDF"/>
<path d="M540.623 367.733H534.2V355.341H540.623V367.733Z" fill="#EDFFDF"/>
<path d="M479.827 384.464H472.145V372.072H479.827V384.464Z" fill="#EDFFDF"/>
<path d="M489.875 384.464H482.193V372.072H489.875V384.464Z" fill="#EDFFDF"/>
<path d="M499.924 384.464H492.242V372.072H499.924V384.464Z" fill="#EDFFDF"/>
<path d="M509.973 384.464H502.291V372.072H509.973V384.464Z" fill="#EDFFDF"/>
<path d="M520.022 384.464H512.34V372.072H520.022V384.464Z" fill="#EDFFDF"/>
<path d="M531.834 384.464H525.412V372.072H531.834V384.464Z" fill="#EDFFDF"/>
<path d="M540.623 384.464H534.2V372.072H540.623V384.464Z" fill="#EDFFDF"/>
<path d="M479.827 401.195H472.145V388.803H479.827V401.195Z" fill="#EDFFDF"/>
<path d="M489.875 401.195H482.193V388.803H489.875V401.195Z" fill="#EDFFDF"/>
<path d="M499.924 401.195H492.242V388.803H499.924V401.195Z" fill="#EDFFDF"/>
<path d="M509.973 401.195H502.291V388.803H509.973V401.195Z" fill="#EDFFDF"/>
<path d="M520.022 401.195H512.34V388.803H520.022V401.195Z" fill="#EDFFDF"/>
<path d="M531.834 401.195H525.412V388.803H531.834V401.195Z" fill="#EDFFDF"/>
<path d="M540.623 401.195H534.2V388.803H540.623V401.195Z" fill="#EDFFDF"/>
<path d="M479.827 417.926H472.145V405.534H479.827V417.926Z" fill="#EDFFDF"/>
<path d="M489.875 417.926H482.193V405.534H489.875V417.926Z" fill="#EDFFDF"/>
<path d="M499.924 417.926H492.242V405.534H499.924V417.926Z" fill="#EDFFDF"/>
<path d="M509.973 417.926H502.291V405.534H509.973V417.926Z" fill="#EDFFDF"/>
<path d="M520.022 417.926H512.34V405.534H520.022V417.926Z" fill="#EDFFDF"/>
<path d="M531.834 417.926H525.412V405.534H531.834V417.926Z" fill="#EDFFDF"/>
<path d="M540.623 417.926H534.2V405.534H540.623V417.926Z" fill="#EDFFDF"/>
<path d="M479.827 434.656H472.145V422.265H479.827V434.656Z" fill="#EDFFDF"/>
<path d="M489.875 434.656H482.193V422.265H489.875V434.656Z" fill="#EDFFDF"/>
<path d="M499.924 434.656H492.242V422.265H499.924V434.656Z" fill="#EDFFDF"/>
<path d="M509.973 434.656H502.291V422.265H509.973V434.656Z" fill="#EDFFDF"/>
<path d="M520.022 434.656H512.34V422.265H520.022V434.656Z" fill="#EDFFDF"/>
<path d="M531.834 434.656H525.412V422.265H531.834V434.656Z" fill="#EDFFDF"/>
<path d="M540.623 434.656H534.2V422.265H540.623V434.656Z" fill="#EDFFDF"/>
<path d="M479.827 451.387H472.145V438.996H479.827V451.387Z" fill="#EDFFDF"/>
<path d="M489.875 451.387H482.193V438.996H489.875V451.387Z" fill="#EDFFDF"/>
<path d="M499.924 451.387H492.242V438.996H499.924V451.387Z" fill="#EDFFDF"/>
<path d="M509.973 451.387H502.291V438.996H509.973V451.387Z" fill="#EDFFDF"/>
<path d="M520.022 451.387H512.34V438.996H520.022V451.387Z" fill="#EDFFDF"/>
<path d="M531.834 451.387H525.412V438.996H531.834V451.387Z" fill="#EDFFDF"/>
<path d="M540.623 451.387H534.2V438.996H540.623V451.387Z" fill="#EDFFDF"/>
<path d="M479.827 468.118H472.145V455.727H479.827V468.118Z" fill="#EDFFDF"/>
<path d="M489.875 468.118H482.193V455.727H489.875V468.118Z" fill="#EDFFDF"/>
<path d="M499.924 468.118H492.242V455.727H499.924V468.118Z" fill="#EDFFDF"/>
<path d="M509.973 468.118H502.291V455.727H509.973V468.118Z" fill="#EDFFDF"/>
<path d="M520.022 468.118H512.34V455.727H520.022V468.118Z" fill="#EDFFDF"/>
<path d="M531.834 468.118H525.412V455.727H531.834V468.118Z" fill="#EDFFDF"/>
<path d="M540.623 468.118H534.2V455.727H540.623V468.118Z" fill="#EDFFDF"/>
<path d="M479.827 484.849H472.145V472.457H479.827V484.849Z" fill="#EDFFDF"/>
<path d="M489.875 484.849H482.193V472.457H489.875V484.849Z" fill="#EDFFDF"/>
<path d="M499.924 484.849H492.242V472.457H499.924V484.849Z" fill="#EDFFDF"/>
<path d="M509.973 484.849H502.291V472.457H509.973V484.849Z" fill="#EDFFDF"/>
<path d="M520.022 484.849H512.34V472.457H520.022V484.849Z" fill="#EDFFDF"/>
<path d="M531.834 484.849H525.412V472.457H531.834V484.849Z" fill="#EDFFDF"/>
<path d="M540.623 484.849H534.2V472.457H540.623V484.849Z" fill="#EDFFDF"/>
<path d="M653.626 494.836H573.798V347.139H653.626V494.836Z" fill="#90DD42"/>
<path d="M653.626 494.836H631.518V347.139H653.626V494.836Z" fill="#84B333"/>
<path d="M650.155 363.629H577.054V356.057H650.155V363.629Z" fill="#EDFFDF"/>
<path d="M650.155 373.853H577.054V366.28H650.155V373.853Z" fill="#EDFFDF"/>
<path d="M650.155 384.079H577.054V376.507H650.155V384.079Z" fill="#EDFFDF"/>
<path d="M650.155 394.301H577.054V386.729H650.155V394.301Z" fill="#EDFFDF"/>
<path d="M650.155 404.526H577.054V396.953H650.155V404.526Z" fill="#EDFFDF"/>
<path d="M650.155 414.751H577.054V407.178H650.155V414.751Z" fill="#EDFFDF"/>
<path d="M650.155 424.974H577.054V417.402H650.155V424.974Z" fill="#EDFFDF"/>
<path d="M650.155 435.199H577.054V427.627H650.155V435.199Z" fill="#EDFFDF"/>
<path d="M650.155 445.262H577.054V437.69H650.155V445.262Z" fill="#EDFFDF"/>
<path d="M650.155 455.486H577.054V447.913H650.155V455.486Z" fill="#EDFFDF"/>
<path d="M650.155 465.711H577.054V458.138H650.155V465.711Z" fill="#EDFFDF"/>
<path d="M650.155 475.936H577.054V468.363H650.155V475.936Z" fill="#EDFFDF"/>
<path d="M650.155 486.159H577.054V478.587H650.155V486.159Z" fill="#EDFFDF"/>
<path d="M447.153 510.477H371.512V310.457H447.153V510.477Z" fill="#90DD42"/>
<path d="M447.154 510.264H429.162V310.456H447.154V510.264Z" fill="#84B333"/>
<path d="M375.81 501.285H380.055V317.987H375.81V501.285Z" fill="#EDFFDF"/>
<path d="M383.487 501.285H387.733V317.987H383.487V501.285Z" fill="#EDFFDF"/>
<path d="M391.165 501.285H395.41V317.987H391.165V501.285Z" fill="#EDFFDF"/>
<path d="M398.843 501.285H403.088V317.987H398.843V501.285Z" fill="#EDFFDF"/>
<path d="M406.52 501.285H410.765V317.987H406.52V501.285Z" fill="#EDFFDF"/>
<path d="M414.198 501.285H418.443V317.987H414.198V501.285Z" fill="#EDFFDF"/>
<path d="M421.875 501.285H426.121V317.987H421.875V501.285Z" fill="#EDFFDF"/>
<path d="M432.482 501.285H436.348V317.987H432.482V501.285Z" fill="#EDFFDF"/>
<path d="M439.473 501.285H443.338V317.987H439.473V501.285Z" fill="#EDFFDF"/>
<g opacity="0.199997">
<g opacity="0.199997">
<path opacity="0.199997" d="M402.796 146.945C404.853 146.945 406.816 147.53 408.616 148.576C415.603 135.172 424.555 127.066 434.342 127.066C443.167 127.066 451.315 133.644 457.955 144.759C462.303 142.312 467.104 140.91 472.178 140.91C480.746 140.91 488.564 144.828 494.653 151.266C497.236 148.564 500.391 146.945 503.822 146.945C508.061 146.945 511.901 149.386 514.727 153.335H496.52H492.918H462.384H447.834H413.7H406.302H391.889C394.717 149.386 398.557 146.945 402.796 146.945Z" fill="white"/>
</g>
</g>
<g opacity="0.199997">
<g opacity="0.199997">
<path opacity="0.199997" d="M666.911 340.389C668.709 340.389 670.423 340.901 671.998 341.813C678.101 330.103 685.924 323.02 694.477 323.02C702.189 323.02 709.307 328.766 715.108 338.478C718.909 336.34 723.104 335.116 727.537 335.116C735.023 335.116 741.858 338.539 747.176 344.165C749.434 341.803 752.192 340.389 755.187 340.389C758.893 340.389 762.247 342.521 764.717 345.973H748.807H745.66H718.98H706.267H676.437H669.974H657.382C659.851 342.521 663.206 340.389 666.911 340.389Z" fill="white"/>
</g>
</g>
<g opacity="0.199997">
<g opacity="0.199997">
<path opacity="0.199997" d="M591.638 108.02C589.84 108.02 588.123 108.532 586.551 109.444C580.447 97.7338 572.625 90.6506 564.071 90.6506C556.36 90.6506 549.239 96.3973 543.438 106.109C539.64 103.971 535.444 102.748 531.011 102.748C523.523 102.748 516.69 106.17 511.372 111.796C509.115 109.434 506.356 108.02 503.359 108.02C499.655 108.02 496.301 110.152 493.831 113.604H509.739H512.888H539.567H552.282H582.109H588.572H601.164C598.698 110.152 595.34 108.02 591.638 108.02Z" fill="white"/>
</g>
</g>
<g opacity="0.199997">
<g opacity="0.199997">
<path opacity="0.199997" d="M114.066 274.476C116.756 274.476 119.316 275.24 121.667 276.606C130.793 259.1 142.484 248.513 155.266 248.513C166.782 248.513 177.418 257.092 186.086 271.59C191.766 268.391 198.053 266.595 204.679 266.595C215.872 266.595 226.102 271.69 234.051 280.097C237.422 276.581 241.537 274.476 246.008 274.476C251.544 274.476 256.56 277.662 260.25 282.822H236.472H231.769H191.889H172.888H128.308H118.646H99.8247C103.515 277.662 108.53 274.476 114.066 274.476Z" fill="white"/>
</g>
</g>
<g opacity="0.199997">
<g opacity="0.199997">
<path opacity="0.199997" d="M763.057 84.4761C760.606 84.4761 758.269 85.1735 756.126 86.4181C747.807 70.4581 737.147 60.8065 725.493 60.8065C714.985 60.8065 705.281 68.6372 697.377 81.8721C692.196 78.957 686.481 77.2906 680.442 77.2906C670.239 77.2906 660.928 81.9556 653.678 89.6193C650.604 86.4014 646.845 84.4761 642.761 84.4761C637.714 84.4761 633.14 87.3828 629.776 92.0854H651.456H655.743H692.103H709.426H750.073H758.883H776.041C772.675 87.3828 768.104 84.4761 763.057 84.4761Z" fill="white"/>
</g>
</g>
<g opacity="0.199997">
<g opacity="0.199997">
<path opacity="0.199997" d="M683.612 259.419C680.411 259.419 677.36 260.329 674.56 261.954C663.695 241.112 649.773 228.505 634.553 228.505C620.839 228.505 608.177 238.721 597.857 255.982C591.091 252.173 583.605 250.034 575.716 250.034C562.387 250.034 550.206 256.103 540.741 266.113C536.729 261.925 531.826 259.419 526.503 259.419C519.909 259.419 513.939 263.215 509.547 269.356H537.859H543.462H590.945H613.57H666.654H678.16H700.571C696.177 263.215 690.205 259.419 683.612 259.419Z" fill="white"/>
</g>
</g>
<g opacity="0.199997">
<g opacity="0.199997">
<path opacity="0.199997" d="M777.295 171.394C777.295 161.5 769.274 153.479 759.382 153.479C749.489 153.479 741.468 161.5 741.468 171.394C741.468 181.287 749.489 189.308 759.382 189.308C769.274 189.308 777.295 181.287 777.295 171.394Z" fill="white"/>
</g>
</g>
<g opacity="0.199997">
<g opacity="0.199997">
<path opacity="0.199997" d="M581.525 160.117C581.525 156.452 578.554 153.48 574.889 153.48C571.224 153.48 568.253 156.452 568.253 160.117C568.253 163.781 571.224 166.753 574.889 166.753C578.554 166.753 581.525 163.781 581.525 160.117Z" fill="white"/>
</g>
</g>
<path d="M490 270H484V254H490V270Z" fill="white"/>
<path d="M490 270H487V254H490V270Z" fill="#CECECE"/>
<path d="M491 242H484V223H491V242Z" fill="white"/>
<path d="M491 242H487V223H491V242Z" fill="#CECECE"/>
<path d="M492.535 145.429C492.397 142.489 490.012 140.198 487.164 140.202C484.312 140.206 481.939 142.504 481.81 145.442L478.542 220.293C478.31 225.626 481.449 230.151 485.506 230.149L489.156 230.147C493.211 230.145 496.337 225.615 496.085 220.282L492.535 145.429Z" fill="#EDEDED"/>
<path d="M487.31 140.195V230.142H485.495C481.444 230.142 478.302 225.638 478.542 220.286L481.806 145.456C481.929 142.495 484.316 140.195 487.16 140.195H487.31Z" fill="white"/>
<path d="M490.969 254.022L493.708 247.244L511.333 254.371L508.591 261.149L490.969 254.022Z" fill="white"/>
<path d="M490.969 254.022L492.341 250.629L509.965 257.756L508.591 261.149L490.969 254.022Z" fill="#CECECE"/>
<path d="M580.255 291.814C583.032 292.787 586.05 291.436 587.115 288.793C588.18 286.151 586.939 283.088 584.262 281.866L516.096 250.777C511.241 248.562 505.868 249.779 504.347 253.538L502.982 256.925C501.464 260.684 504.492 265.28 509.53 267.044L580.255 291.814Z" fill="#EDEDED"/>
<path d="M587.066 288.932L503.676 255.214L504.359 253.531C505.875 249.776 511.231 248.551 516.103 250.779L584.251 281.859C586.951 283.081 588.187 286.157 587.122 288.792L587.066 288.932Z" fill="white"/>
<path d="M483.658 254.022L480.919 247.244L463.296 254.371L466.038 261.149L483.658 254.022Z" fill="white"/>
<path d="M483.658 254.022L482.286 250.629L464.664 257.756L466.038 261.149L483.658 254.022Z" fill="#CECECE"/>
<path d="M394.373 291.814C391.596 292.787 388.579 291.436 387.514 288.793C386.447 286.151 387.689 283.088 390.366 281.866L458.533 250.777C463.388 248.562 468.761 249.779 470.281 253.538L471.647 256.925C473.165 260.684 470.137 265.28 465.098 267.044L394.373 291.814Z" fill="#EDEDED"/>
<path d="M387.562 288.932L470.95 255.214L470.269 253.531C468.751 249.776 463.395 248.551 458.525 250.779L390.377 281.859C387.675 283.081 386.441 286.157 387.506 288.792L387.562 288.932Z" fill="white"/>
<path d="M498.436 491.276H476.185L481.624 270.596C481.687 267.512 484.226 265.033 487.31 265.033C490.393 265.033 492.934 267.512 492.994 270.596L498.436 491.276Z" fill="white"/>
<path d="M498.436 491.276H487.31V265.033C490.392 265.033 492.934 267.512 492.994 270.596L498.436 491.276Z" fill="#EDEDED"/>
<path d="M497.243 247.568C497.243 253.052 492.798 257.497 487.314 257.497C481.831 257.497 477.385 253.052 477.385 247.568C477.385 242.084 481.831 237.639 487.314 237.639C492.798 237.639 497.243 242.084 497.243 247.568Z" fill="#3E7B7A"/>
<path d="M493.234 247.568C493.234 250.838 490.582 253.488 487.314 253.488C484.044 253.488 481.392 250.838 481.392 247.568C481.392 244.298 484.044 241.648 487.314 241.648C490.582 241.648 493.234 244.298 493.234 247.568Z" fill="#569692"/>
<path d="M362 324H358V312H362V324Z" fill="white"/>
<path d="M362 324H360V312H362V324Z" fill="#CECECE"/>
<path d="M363 303H358V288H363V303Z" fill="white"/>
<path d="M363 303H360V288H363V303Z" fill="#CECECE"/>
<path d="M364.239 229.103C364.135 226.875 362.329 225.138 360.167 225.14C358.008 225.142 356.206 226.886 356.108 229.114L353.631 285.858C353.454 289.901 355.837 293.332 358.908 293.33L361.677 293.328C364.753 293.325 367.123 289.892 366.931 285.85L364.239 229.103Z" fill="#EDEDED"/>
<path d="M360.279 225.135V293.325H358.903C355.831 293.325 353.449 289.911 353.63 285.853L356.107 229.123C356.199 226.876 358.009 225.135 360.162 225.135H360.279Z" fill="white"/>
<path d="M363.053 311.429L365.13 306.29L378.491 311.692L376.411 316.829L363.053 311.429Z" fill="white"/>
<path d="M363.053 311.429L364.093 308.856L377.453 314.258L376.411 316.829L363.053 311.429Z" fill="#CECECE"/>
<path d="M430.742 340.078C432.847 340.815 435.135 339.792 435.941 337.787C436.749 335.785 435.81 333.463 433.778 332.538L382.101 308.968C378.42 307.289 374.346 308.21 373.195 311.061L372.16 313.627C371.009 316.477 373.304 319.963 377.123 321.301L430.742 340.078Z" fill="#EDEDED"/>
<path d="M435.905 337.893L372.687 312.332L373.203 311.056C374.353 308.209 378.415 307.278 382.105 308.97L433.771 332.531C435.819 333.458 436.755 335.79 435.949 337.787L435.905 337.893Z" fill="white"/>
<path d="M357.51 311.429L355.432 306.29L342.072 311.692L344.152 316.829L357.51 311.429Z" fill="white"/>
<path d="M357.51 311.429L356.471 308.856L343.11 314.258L344.152 316.829L357.51 311.429Z" fill="#CECECE"/>
<path d="M289.824 340.078C287.717 340.815 285.43 339.792 284.622 337.787C283.814 335.785 284.756 333.463 286.785 332.538L338.462 308.968C342.145 307.289 346.217 308.21 347.368 311.061L348.406 313.627C349.554 316.477 347.259 319.963 343.44 321.301L289.824 340.078Z" fill="#EDEDED"/>
<path d="M284.661 337.893L347.876 312.332L347.36 311.056C346.21 308.209 342.15 307.278 338.458 308.97L286.793 332.531C284.746 333.458 283.809 335.79 284.617 337.787L284.661 337.893Z" fill="white"/>
<path d="M368.714 491.292H351.843L355.97 323.993C356.015 321.654 357.941 319.775 360.28 319.775C362.616 319.775 364.542 321.654 364.587 323.993L368.714 491.292Z" fill="white"/>
<path d="M368.714 491.292H360.28V319.775C362.616 319.775 364.542 321.654 364.588 323.993L368.714 491.292Z" fill="#EDEDED"/>
<path d="M367.808 306.535C367.808 310.692 364.44 314.062 360.282 314.062C356.125 314.062 352.754 310.692 352.754 306.535C352.754 302.377 356.125 299.009 360.282 299.009C364.44 299.009 367.808 302.377 367.808 306.535Z" fill="#3E7B7A"/>
<path d="M364.77 306.535C364.77 309.013 362.761 311.024 360.282 311.024C357.801 311.024 355.792 309.013 355.792 306.535C355.792 304.056 357.801 302.047 360.282 302.047C362.761 302.047 364.77 304.056 364.77 306.535Z" fill="#569692"/>
<path d="M606 359H603V350H606V359Z" fill="white"/>
<path d="M606 359H604V350H606V359Z" fill="#CECECE"/>
<path d="M606 343H602V331H606V343Z" fill="white"/>
<path d="M606 343H604V331H606V343Z" fill="#CECECE"/>
<path d="M607.361 284.663C607.277 282.906 605.853 281.537 604.151 281.539C602.447 281.541 601.029 282.915 600.954 284.671L599 329.389C598.86 332.576 600.737 335.28 603.159 335.28L605.341 335.278C607.764 335.276 609.63 332.57 609.48 329.385L607.361 284.663Z" fill="#EDEDED"/>
<path d="M604.239 281.535V335.275H603.153C600.733 335.275 598.855 332.583 598.999 329.386L600.952 284.678C601.023 282.909 602.451 281.535 604.147 281.535H604.239Z" fill="white"/>
<path d="M606.424 349.542L608.061 345.493L618.59 349.751L616.953 353.8L606.424 349.542Z" fill="white"/>
<path d="M606.424 349.542L607.245 347.515L617.774 351.773L616.953 353.8L606.424 349.542Z" fill="#CECECE"/>
<path d="M659.769 372.123C661.427 372.704 663.232 371.898 663.868 370.317C664.505 368.738 663.762 366.909 662.162 366.178L621.439 347.604C618.536 346.282 615.324 347.006 614.418 349.253L613.602 351.277C612.693 353.524 614.502 356.268 617.515 357.322L659.769 372.123Z" fill="#EDEDED"/>
<path d="M663.838 370.4L614.018 350.255L614.423 349.25C615.331 347.006 618.53 346.273 621.439 347.605L662.157 366.175C663.771 366.904 664.508 368.742 663.873 370.316L663.838 370.4Z" fill="white"/>
<path d="M602.056 349.542L600.419 345.493L589.891 349.751L591.528 353.8L602.056 349.542Z" fill="white"/>
<path d="M602.056 349.542L601.236 347.515L590.707 351.773L591.528 353.8L602.056 349.542Z" fill="#CECECE"/>
<path d="M548.712 372.123C547.054 372.704 545.249 371.898 544.613 370.317C543.976 368.738 544.719 366.909 546.319 366.178L587.042 347.604C589.945 346.282 593.155 347.006 594.063 349.253L594.879 351.277C595.786 353.524 593.977 356.268 590.966 357.322L548.712 372.123Z" fill="#EDEDED"/>
<path d="M544.644 370.4L594.464 350.255L594.056 349.25C593.15 347.006 589.949 346.273 587.042 347.605L546.325 366.175C544.711 366.904 543.973 368.742 544.608 370.316L544.644 370.4Z" fill="white"/>
<path d="M610.884 491.292H597.591L600.84 359.444C600.878 357.602 602.396 356.122 604.238 356.122C606.079 356.122 607.597 357.602 607.633 359.444L610.884 491.292Z" fill="white"/>
<path d="M610.884 491.292H604.238V356.122C606.08 356.122 607.598 357.602 607.633 359.444L610.884 491.292Z" fill="#EDEDED"/>
<path d="M610.173 345.686C610.173 348.962 607.519 351.619 604.24 351.619C600.964 351.619 598.308 348.962 598.308 345.686C598.308 342.41 600.964 339.754 604.24 339.754C607.519 339.754 610.173 342.41 610.173 345.686Z" fill="#3E7B7A"/>
<path d="M607.779 345.686C607.779 347.641 606.194 349.223 604.241 349.223C602.287 349.223 600.702 347.641 600.702 345.686C600.702 343.731 602.287 342.149 604.241 342.149C606.194 342.149 607.779 343.731 607.779 345.686Z" fill="#569692"/>
<path d="M223 488H212V487H223V488Z" fill="#DDDDDD"/>
<path d="M223 488H218V487H223V488Z" fill="#BCBCBC"/>
<path d="M314 487H306V472H314V487Z" fill="white"/>
<path d="M314 487H310V472H314V487Z" fill="#DDDDDD"/>
<path d="M321 476H299V455H321V476Z" fill="#427880"/>
<path d="M315 488H304V487H315V488Z" fill="#DDDDDD"/>
<path d="M315 488H310V487H315V488Z" fill="#BCBCBC"/>
<path d="M698.415 484.775C698.415 486.036 698.233 487.258 697.941 488.425H622.927C622.624 487.258 622.442 486.036 622.442 484.775C622.442 482.104 623.163 479.594 624.414 477.431C626.953 473.025 631.701 470.07 637.149 470.07C639.405 470.07 641.528 470.59 643.443 471.492C645.565 463.122 653.137 456.916 662.168 456.916C667.483 456.916 672.298 459.059 675.785 462.536C677.974 464.705 679.652 467.389 680.609 470.4C681.603 470.183 682.645 470.07 683.708 470.07C691.829 470.07 698.415 476.654 698.415 484.775Z" fill="#587324"/>
<path d="M648.832 485.887C648.832 486.764 648.705 487.613 648.502 488.426H596.31C596.097 487.613 595.974 486.764 595.974 485.887C595.974 484.026 596.475 482.278 597.346 480.777C599.111 477.711 602.414 475.654 606.206 475.654C607.777 475.654 609.253 476.016 610.585 476.642C612.062 470.82 617.328 466.502 623.613 466.502C627.312 466.502 630.661 467.993 633.087 470.411C634.61 471.923 635.777 473.788 636.441 475.884C637.134 475.734 637.861 475.654 638.6 475.654C644.251 475.654 648.832 480.236 648.832 485.887Z" fill="#B0CE34"/>
<path d="M550.127 485.113C550.127 485.999 550.031 486.874 549.851 487.698H455.511C453.824 484.765 452.855 481.352 452.855 477.725C452.855 466.652 461.834 457.672 472.908 457.672C477.744 457.672 482.186 459.385 485.646 462.235C489.991 454.346 498.384 448.992 508.033 448.992C521.886 448.992 533.125 460.03 533.534 473.774C534.91 473.248 536.395 472.937 537.963 472.937C544.681 472.937 550.127 478.383 550.127 485.113Z" fill="#81A317"/>
<path d="M566.835 472.937C565.267 472.937 563.782 473.248 562.406 473.774C561.999 460.03 550.758 448.992 536.905 448.992C527.255 448.992 518.863 454.346 514.517 462.235C511.057 459.385 506.616 457.672 501.779 457.672C500.758 457.672 499.766 457.773 498.787 457.921C499.566 454.373 499.223 449.739 494.786 445.306C494.786 445.306 490.983 449.733 491.489 455.384C489.355 453.377 486.258 451.821 481.727 451.878C481.727 451.878 482.391 459.378 488.653 462.592C484.416 466.27 481.727 471.678 481.727 477.725C481.727 481.352 482.695 484.765 484.385 487.698H578.723C578.902 486.874 578.999 485.999 578.999 485.113C578.999 478.383 573.553 472.937 566.835 472.937Z" fill="#B0CE34"/>
<path d="M536.019 486.162C536.019 486.688 535.963 487.208 535.854 487.698H479.766C478.761 485.955 478.187 483.927 478.187 481.768C478.187 475.184 483.522 469.849 490.108 469.849C492.984 469.849 495.623 470.866 497.682 472.557C500.265 467.867 505.256 464.687 510.992 464.687C519.228 464.687 525.91 471.248 526.153 479.419C526.971 479.108 527.855 478.922 528.786 478.922C532.779 478.922 536.019 482.161 536.019 486.162Z" fill="#587324"/>
<path d="M460.657 473.96C460.657 473.96 460.955 475.788 462.346 477.312C461.281 477.408 460.131 477.778 458.951 478.598C458.951 478.598 462.801 483.086 468.043 479.31L468.041 479.308H468.045C468.045 479.308 466.468 473.616 460.657 473.96Z" fill="#587324"/>
<path d="M476.673 461.525C476.673 461.525 475.871 462.54 475.742 463.973C475.193 463.469 474.46 463.05 473.485 462.828C473.485 462.828 472.981 466.923 477.394 467.844V467.842C477.394 467.844 477.396 467.844 477.396 467.846C477.396 467.846 479.586 464.357 476.673 461.525Z" fill="#587324"/>
<path d="M515.733 454.143C515.733 454.143 513.931 454.563 512.503 456.054C512.336 454.997 511.889 453.876 510.991 452.755C510.991 452.755 506.773 456.9 510.897 461.874L510.899 461.872C510.899 461.872 510.899 461.874 510.901 461.876C510.901 461.876 516.472 459.919 515.733 454.143Z" fill="#B0CE34"/>
<path d="M533.275 464.829C533.275 464.829 531.93 466.101 531.45 468.11C530.773 467.283 529.821 466.537 528.48 466.024C528.48 466.024 526.931 471.733 533.001 473.944V473.94C533.003 473.942 533.003 473.944 533.003 473.944C533.003 473.944 536.825 469.442 533.275 464.829Z" fill="#81A317"/>
<path d="M546.467 458.958C546.467 458.958 545.176 459.405 544.245 460.61C544.04 459.847 543.627 459.058 542.881 458.304C542.881 458.304 540.106 461.67 543.514 465.003L543.516 464.999V465.003C543.516 465.003 547.454 463.136 546.467 458.958Z" fill="#81A317"/>
<path d="M566.364 471.028C566.364 471.028 565.002 470.924 563.668 471.657C563.785 470.878 563.718 469.988 563.338 468.999C563.338 468.999 559.448 470.978 561.246 475.393H561.248L561.246 475.395C561.246 475.395 565.599 475.255 566.364 471.028Z" fill="#81A317"/>
<path d="M346.453 465.441C345.063 465.441 343.697 465.589 342.392 465.875C341.137 461.922 338.936 458.408 336.067 455.564C331.493 451.003 325.181 448.194 318.213 448.194C314.241 448.194 310.497 449.128 307.156 450.757C307.191 448.234 306.352 445.407 303.526 442.849C303.526 442.849 299.431 447.662 301.747 453.659C299.333 451.895 295.85 450.654 291.369 452.488C291.369 452.488 293.315 456.814 298.001 458.295C297.153 459.416 296.418 460.625 295.763 461.88C295.263 461.697 294.731 461.58 294.169 461.58C291.722 461.58 289.74 463.499 289.598 465.913C288.251 465.608 286.852 465.441 285.411 465.441C278.266 465.441 272.041 469.316 268.712 475.094C267.071 477.926 266.127 481.221 266.127 484.723C266.127 486.375 266.363 487.979 266.76 489.507H365.118C365.502 487.979 365.738 486.375 365.738 484.723C365.738 474.075 357.103 465.441 346.453 465.441Z" fill="#B0CE34"/>
<path d="M380.429 485.67C380.429 486.996 380.241 488.28 379.932 489.508H301.026C300.706 488.28 300.516 486.996 300.516 485.67C300.516 482.857 301.276 480.218 302.592 477.946C305.263 473.31 310.258 470.201 315.987 470.201C318.36 470.201 320.594 470.748 322.607 471.696C324.839 462.894 332.802 456.364 342.303 456.364C347.895 456.364 352.959 458.617 356.628 462.276C358.929 464.558 360.694 467.377 361.7 470.549C362.746 470.318 363.845 470.201 364.96 470.201C373.502 470.201 380.429 477.127 380.429 485.67Z" fill="#587324"/>
<path d="M334.832 487.089C334.832 487.923 334.711 488.735 334.519 489.508H284.784C284.586 488.735 284.465 487.923 284.465 487.089C284.465 485.317 284.941 483.652 285.772 482.22C287.457 479.298 290.602 477.338 294.217 477.338C295.712 477.338 297.117 477.684 298.387 478.279C299.794 472.733 304.814 468.617 310.801 468.617C314.326 468.617 317.517 470.037 319.828 472.343C321.282 473.784 322.393 475.561 323.027 477.559C323.687 477.413 324.376 477.338 325.082 477.338C330.466 477.338 334.832 481.704 334.832 487.089Z" fill="#8EAD28"/>
<path d="M283.691 469.442C283.691 469.442 280.804 472.071 281.196 476.149C279.968 474.554 278.012 473.14 274.873 472.935C274.873 472.935 274.873 480.209 283.215 481.117C283.215 481.117 288.457 475.462 283.691 469.442Z" fill="#8EAD28"/>
<path d="M324.211 444.341C324.211 444.341 321.716 445.151 320.826 447.757C320.513 446.441 319.709 445.034 317.842 444.038C317.842 444.038 315.827 448.494 320.688 451.361C320.688 451.361 325.464 449.346 324.211 444.341Z" fill="#8EAD28"/>
<path d="M359.215 458.677C359.215 458.677 356.713 457.883 354.473 459.487C354.986 458.234 355.149 456.622 354.212 454.726C354.212 454.726 349.979 457.18 352.266 462.337C352.266 462.337 357.323 463.48 359.215 458.677Z" fill="#8EAD28"/>
<path d="M341.225 464.692C341.225 464.692 339.283 466.461 339.544 469.201C338.721 468.13 337.406 467.177 335.294 467.039C335.294 467.039 335.294 471.93 340.903 472.544C340.903 472.544 344.426 468.739 341.225 464.692Z" fill="#8EAD28"/>
<path d="M333.671 474.185C333.671 474.185 331.051 474.304 329.501 476.58C329.549 475.229 329.146 473.659 327.611 472.206C327.611 472.206 324.487 475.968 328.411 480.02C328.411 480.02 333.55 479.345 333.671 474.185Z" fill="#8EAD28"/>
<path d="M367.253 468.375C367.253 468.375 365.75 468.618 365.009 470.031C364.948 469.25 364.61 468.371 363.63 467.634C363.63 467.634 362.077 470.008 364.606 472.084C364.606 472.084 367.525 471.359 367.253 468.375Z" fill="#8EAD28"/>
<path d="M303.328 460.857C303.328 460.857 301.956 463.093 302.968 465.653C301.878 464.853 300.352 464.304 298.287 464.757C298.287 464.757 299.642 469.456 305.201 468.485C305.201 468.485 307.531 463.855 303.328 460.857Z" fill="#8EAD28"/>
<g opacity="0.669998">
<g opacity="0.669998">
<path opacity="0.669998" d="M252.575 280.762C251.203 280.762 249.921 281.146 248.824 281.806C247.759 278.49 245.268 275.836 242.077 274.516C243.247 272.671 243.936 270.486 243.936 268.137C243.936 261.547 238.594 256.203 232.002 256.203C227.552 256.203 223.674 258.648 221.626 262.261C219.464 258.636 215.507 256.203 210.98 256.203C204.29 256.203 198.852 261.513 198.618 268.147C198.428 268.141 198.24 268.127 198.052 268.127C190.019 268.127 183.506 274.631 183.506 282.665C183.506 283.861 183.65 285.02 183.928 286.133H259.604C258.766 283.032 255.926 280.762 252.575 280.762Z" fill="white"/>
</g>
<g opacity="0.669998">
<path opacity="0.669998" d="M686.64 195.346H558.958C558.494 193.471 558.248 191.516 558.248 189.495C558.248 175.943 569.236 164.967 582.791 164.967C587.721 164.967 592.315 166.429 596.161 168.939C601.104 163.464 608.237 159.995 616.199 159.995C622.566 159.995 628.417 162.223 633.039 165.911C634.333 160.501 639.174 156.489 644.973 156.489C651.77 156.489 657.27 161.989 657.27 168.784C657.27 171.115 656.61 173.289 655.482 175.141C661.632 177.083 666.487 181.911 668.454 188.046C670.304 186.933 672.466 186.286 674.784 186.286C680.438 186.286 685.229 190.117 686.64 195.346Z" fill="white"/>
</g>
<g opacity="0.669998">
<path opacity="0.669998" d="M814.725 135.352H733.733C733.436 134.161 733.28 132.921 733.28 131.641C733.28 123.042 740.252 116.08 748.847 116.08C751.975 116.08 754.893 117.007 757.332 118.6C760.468 115.127 764.993 112.927 770.042 112.927C774.081 112.927 777.792 114.338 780.723 116.679C781.544 113.248 784.616 110.701 788.295 110.701C792.605 110.701 796.095 114.192 796.095 118.502C796.095 119.98 795.677 121.359 794.963 122.534C798.861 123.766 801.941 126.828 803.19 130.72C804.364 130.014 805.734 129.605 807.204 129.605C810.793 129.605 813.83 132.033 814.725 135.352Z" fill="white"/>
</g>
<g opacity="0.669998">
<path opacity="0.669998" d="M442.612 213.998C441.407 213.998 440.281 214.336 439.316 214.915C438.385 212.004 436.195 209.671 433.392 208.515C434.42 206.894 435.025 204.975 435.025 202.912C435.025 197.126 430.333 192.433 424.547 192.433C420.638 192.433 417.234 194.58 415.432 197.752C413.536 194.57 410.061 192.433 406.087 192.433C400.211 192.433 395.435 197.096 395.231 202.92C395.063 202.914 394.899 202.904 394.731 202.904C387.678 202.904 381.958 208.615 381.958 215.669C381.958 216.721 382.087 217.738 382.33 218.715H448.782C448.049 215.992 445.556 213.998 442.612 213.998Z" fill="white"/>
</g>
<g opacity="0.669998">
<path opacity="0.669998" d="M519.903 66.1814C518.696 66.1814 517.571 66.5176 516.608 67.096C515.674 64.185 513.486 61.8546 510.682 60.6978C511.711 59.0753 512.315 57.1583 512.315 55.0952C512.315 49.3067 507.624 44.6166 501.838 44.6166C497.929 44.6166 494.525 46.7612 492.723 49.9353C490.825 46.7508 487.352 44.6166 483.379 44.6166C477.5 44.6166 472.727 49.2775 472.522 55.1035C472.353 55.0973 472.19 55.0847 472.023 55.0847C464.969 55.0847 459.25 60.798 459.25 67.8519C459.25 68.9023 459.379 69.9213 459.621 70.8965H526.074C525.341 68.1756 522.845 66.1814 519.903 66.1814Z" fill="white"/>
</g>
</g>
<path d="M763.526 510.404C763.526 516.364 761.112 521.754 757.197 525.654C753.298 529.567 747.896 531.981 741.934 531.981H97.5884C85.667 531.981 76.0112 522.311 76.0112 510.404C76.0112 510.081 76.0112 509.771 76.0404 509.462C76.2764 503.87 78.6319 498.836 82.3259 495.142C86.2412 491.226 91.6287 488.812 97.5884 488.812H741.934C753.532 488.812 763.01 497.967 763.497 509.462C763.526 509.771 763.526 510.081 763.526 510.404Z" fill="#70532F"/>
<path d="M764 513.008C764 519.635 761.584 525.627 757.666 529.965C753.765 534.316 748.359 537 742.393 537H97.5924C85.6625 537 76 526.247 76 513.008C76 512.648 76 512.305 76.0292 511.961C76.2653 505.743 78.6225 500.145 82.3191 496.038C86.2372 491.684 91.6285 489 97.5924 489H742.393C753.999 489 763.484 499.179 763.971 511.961C764 512.305 764 512.648 764 513.008Z" fill="#70532F"/>
<path d="M394.598 509.295C394.598 515.165 389.841 519.922 383.971 519.922C378.103 519.922 373.344 515.165 373.344 509.295C373.344 503.425 378.103 498.668 383.971 498.668C389.841 498.668 394.598 503.425 394.598 509.295Z" fill="#604222"/>
<path d="M192.036 516.6C192.036 520.636 188.766 523.906 184.729 523.906C180.693 523.906 177.425 520.636 177.425 516.6C177.425 512.565 180.693 509.295 184.729 509.295C188.766 509.295 192.036 512.565 192.036 516.6Z" fill="#604222"/>
<path d="M303.888 504.221C303.888 508.258 300.618 511.528 296.584 511.528C292.547 511.528 289.277 508.258 289.277 504.221C289.277 500.185 292.547 496.917 296.584 496.917C300.618 496.917 303.888 500.185 303.888 504.221Z" fill="#604222"/>
<path d="M136.91 500.661C136.91 504.697 133.64 507.967 129.604 507.967C125.569 507.967 122.299 504.697 122.299 500.661C122.299 496.626 125.569 493.356 129.604 493.356C133.64 493.356 136.91 496.626 136.91 500.661Z" fill="#604222"/>
<path d="M214.789 505.525C214.789 507.607 213.1 509.296 211.018 509.296C208.936 509.296 207.249 507.607 207.249 505.525C207.249 503.443 208.936 501.753 211.018 501.753C213.1 501.753 214.789 503.443 214.789 505.525Z" fill="#604222"/>
<path d="M271.067 525.898C271.067 528.465 268.987 530.549 266.418 530.549C263.852 530.549 261.77 528.465 261.77 525.898C261.77 523.332 263.852 521.248 266.418 521.248C268.987 521.248 271.067 523.332 271.067 525.898Z" fill="#604222"/>
<path d="M101.994 513.279C101.994 515.846 99.9116 517.93 97.3452 517.93C94.7767 517.93 92.6948 515.846 92.6948 513.279C92.6948 510.713 94.7767 508.629 97.3452 508.629C99.9116 508.629 101.994 510.713 101.994 513.279Z" fill="#604222"/>
<path d="M241.846 504.646C241.846 507.212 239.764 509.296 237.196 509.296C234.629 509.296 232.547 507.212 232.547 504.646C232.547 502.079 234.629 499.997 237.196 499.997C239.764 499.997 241.846 502.079 241.846 504.646Z" fill="#604222"/>
<path d="M661.582 513.279C661.582 519.149 656.825 523.906 650.957 523.906C645.09 523.906 640.331 519.149 640.331 513.279C640.331 507.41 645.09 502.653 650.957 502.653C656.825 502.653 661.582 507.41 661.582 513.279Z" fill="#604222"/>
<path d="M712.058 509.295C712.058 515.165 707.301 519.922 701.431 519.922C695.563 519.922 690.804 515.165 690.804 509.295C690.804 503.425 695.563 498.668 701.431 498.668C707.301 498.668 712.058 503.425 712.058 509.295Z" fill="#604222"/>
<path d="M509.495 516.6C509.495 520.636 506.225 523.906 502.188 523.906C498.154 523.906 494.884 520.636 494.884 516.6C494.884 512.565 498.154 509.295 502.188 509.295C506.225 509.295 509.495 512.565 509.495 516.6Z" fill="#604222"/>
<path d="M454.37 500.661C454.37 504.697 451.1 507.967 447.066 507.967C443.029 507.967 439.759 504.697 439.759 500.661C439.759 496.626 443.029 493.356 447.066 493.356C451.1 493.356 454.37 496.626 454.37 500.661Z" fill="#604222"/>
<path d="M364.048 521.333C364.048 525.369 360.777 528.639 356.741 528.639C352.707 528.639 349.437 525.369 349.437 521.333C349.437 517.298 352.707 514.028 356.741 514.028C360.777 514.028 364.048 517.298 364.048 521.333Z" fill="#604222"/>
<path d="M550.339 511.528C550.339 514.094 548.257 516.176 545.689 516.176C543.122 516.176 541.041 514.094 541.041 511.528C541.041 508.961 543.122 506.877 545.689 506.877C548.257 506.877 550.339 508.961 550.339 511.528Z" fill="#604222"/>
<path d="M595.937 519.921C595.937 522.488 593.857 524.572 591.286 524.572C588.72 524.572 586.64 522.488 586.64 519.921C586.64 517.355 588.72 515.271 591.286 515.271C593.857 515.271 595.937 517.355 595.937 519.921Z" fill="#604222"/>
<path d="M745.264 504.646C745.264 507.212 743.182 509.296 740.614 509.296C738.048 509.296 735.968 507.212 735.968 504.646C735.968 502.079 738.048 499.997 740.614 499.997C743.182 499.997 745.264 502.079 745.264 504.646Z" fill="#604222"/>
<path d="M425.643 521.333C425.643 523.899 423.562 525.983 420.993 525.983C418.427 525.983 416.345 523.899 416.345 521.333C416.345 518.766 418.427 516.684 420.993 516.684C423.562 516.684 425.643 518.766 425.643 521.333Z" fill="#604222"/>
<path d="M559.306 504.646C559.306 507.212 557.224 509.296 554.655 509.296C552.089 509.296 550.007 507.212 550.007 504.646C550.007 502.079 552.089 499.997 554.655 499.997C557.224 499.997 559.306 502.079 559.306 504.646Z" fill="#604222"/>
<path d="M683.708 522.578C683.708 525.145 681.626 527.227 679.057 527.227C676.491 527.227 674.409 525.145 674.409 522.578C674.409 520.012 676.491 517.928 679.057 517.928C681.626 517.928 683.708 520.012 683.708 522.578Z" fill="#604222"/>
<path d="M762.907 511.499H75.4507C75.6866 505.057 78.0421 499.261 81.7361 495.007C85.6515 490.499 91.0369 487.719 96.9987 487.719H741.345C752.942 487.719 762.421 498.261 762.907 511.499Z" fill="#8EAD28"/>
<path d="M156.835 532.451C156.835 539.21 152.078 544.686 146.208 544.686C140.341 544.686 135.582 539.21 135.582 532.451C135.582 525.691 140.341 520.213 146.208 520.213C152.078 520.213 156.835 525.691 156.835 532.451Z" fill="#604222"/>
<path d="M317.834 532.451C317.834 539.21 313.08 544.686 307.21 544.686C301.342 544.686 296.583 539.21 296.583 532.451C296.583 525.691 301.342 520.213 307.21 520.213C313.08 520.213 317.834 525.691 317.834 532.451Z" fill="#604222"/>
<path d="M237.695 538.472C237.695 544.335 233.568 549.084 228.479 549.084C223.39 549.084 219.264 544.335 219.264 538.472C219.264 532.612 223.39 527.863 228.479 527.863C233.568 527.863 237.695 532.612 237.695 538.472Z" fill="#604222"/>
<path d="M474.296 532.451C474.296 539.21 469.539 544.686 463.669 544.686C457.801 544.686 453.042 539.21 453.042 532.451C453.042 525.691 457.801 520.213 463.669 520.213C469.539 520.213 474.296 525.691 474.296 532.451Z" fill="#604222"/>
<path d="M554.656 538.186C554.656 543.89 550.64 548.511 545.689 548.511C540.738 548.511 536.725 543.89 536.725 538.186C536.725 532.484 540.738 527.862 545.689 527.862C550.64 527.862 554.656 532.484 554.656 538.186Z" fill="#604222"/>
<path d="M751.241 535.64C751.241 542.399 746.484 547.877 740.615 547.877C734.747 547.877 729.988 542.399 729.988 535.64C729.988 528.88 734.747 523.402 740.615 523.402C746.484 523.402 751.241 528.88 751.241 535.64Z" fill="#604222"/>
<path d="M631.34 535.64C631.34 540.288 628.069 544.054 624.035 544.054C619.999 544.054 616.729 540.288 616.729 535.64C616.729 530.994 619.999 527.228 624.035 527.228C628.069 527.228 631.34 530.994 631.34 535.64Z" fill="#604222"/>
<path d="M416.899 477.345L419.716 479.897C419.716 479.897 420.812 478.826 422.955 478.621C425.099 478.417 454.85 480.931 454.85 480.931C454.85 480.931 458.805 480.265 460.371 479.897C461.935 479.53 562.168 478.665 562.168 478.665L563.337 480.213C563.337 480.213 565.505 478.747 568.597 478.375C571.686 478.003 599.872 476.437 599.872 476.437C599.872 476.437 601.486 477.801 602.576 477.389C603.662 476.974 607.454 473.679 607.454 473.679L603.497 454.104L578.157 450.356L546.45 448.871L453.2 451.922L418.198 453.897L415.496 468.609L416.899 477.345Z" fill="black" fill-opacity="0.87"/>
<path d="M436.684 439.23C436.684 439.23 436.07 436.996 436.299 436.852C436.531 436.71 442.067 434.724 442.719 434.342C443.366 433.96 467.236 411.236 471.627 411.656C476.019 412.075 467.656 426.206 467.656 426.206L441.915 441.673L436.684 439.23Z" fill="#2D2D2B"/>
<path d="M624.747 465.838C624.747 465.838 628.27 466.467 628.316 468.154C628.364 469.843 630.439 476.21 619.777 475.728C609.117 475.246 618.91 464.97 624.747 465.838Z" fill="#2E2E2E"/>
<path d="M415.259 447.059L413.422 448.059C413.422 448.059 411.133 453.246 411.21 455.347C411.288 457.448 411.19 463.468 411.524 464.048C411.86 464.627 415.259 464.55 415.259 464.55L418.197 464.092C418.197 464.092 417.588 448.166 415.259 447.059Z" fill="#2D2D2B"/>
<path d="M621.419 434.905C621.806 433.648 617.957 420.883 617.957 420.883H621.185C620.056 417.333 618.657 414.284 616.93 412.338C616.93 412.338 616.397 407.802 605.305 408.779L572.113 408.151L495.662 408.99C495.662 408.99 473.064 408.222 468.739 413.035L442.374 437.801C442.374 437.801 437.201 438.555 436.301 436.853L414.403 446.392C414.403 446.392 413.59 446.571 413.423 448.06C413.423 448.06 415.829 448.397 415.994 450.796C416.159 453.195 416.493 463.705 415.833 463.954C415.169 464.202 411.696 463.956 411.448 463.294C411.448 463.294 411.245 463.812 411.623 464.16C412.001 464.507 413.31 464.866 414.045 464.895C414.781 464.927 422.816 465.15 422.816 465.15C422.816 465.15 429.225 456.67 440.419 458.414C451.618 460.157 455.21 466.261 456.885 471.945C458.559 477.631 458.488 480.003 460.825 480.212C463.164 480.423 563.338 480.212 563.338 480.212C563.338 480.212 564.696 478.224 564.385 477.074C564.069 475.923 564.487 454.891 584.264 456.252C604.041 457.612 602.578 477.389 602.578 477.389L621.776 475.819C621.776 475.819 622.875 474.668 622.875 472.887V467.236C622.875 467.236 625.807 467.971 625.807 465.355V451.333C625.807 451.333 625.5 443.646 624.219 434.905H621.419Z" fill="#E5E5E3"/>
<path d="M460.576 425.388C460.576 425.388 468.795 417.06 470.662 416.089C472.533 415.12 475.36 412.98 479.998 413.049C484.636 413.118 488.85 412.566 488.85 412.566H493.857C493.857 412.566 495.219 412.376 495.565 413.692C495.912 415.007 495.565 434.822 495.565 434.822C495.565 434.822 495.634 436.073 494.874 436.282C494.112 436.489 461.57 436.977 461.57 436.977L460.576 425.388Z" fill="#2D2D2B"/>
<path d="M412.472 462.812C412.472 462.812 406.691 463.912 406.691 465.932V476.237C406.691 476.237 407.443 479.73 411.342 479.897C415.238 480.067 419.715 479.897 419.715 479.897C419.715 479.897 417.304 467.471 422.777 465.151C423.819 464.708 412.472 462.812 412.472 462.812Z" fill="#393B3A"/>
<path d="M621.419 434.905H624.219C623.528 430.188 622.551 425.17 621.185 420.883H617.957C617.957 420.883 621.805 433.648 621.419 434.905Z" fill="#BA1F25"/>
<path d="M455.629 479.897C455.629 489.312 447.996 496.945 438.581 496.945C429.167 496.945 421.535 489.312 421.535 479.897C421.535 470.483 429.167 462.851 438.581 462.851C447.996 462.851 455.629 470.483 455.629 479.897Z" fill="#27262C"/>
<path d="M425.743 479.897C425.743 487.009 431.511 492.775 438.623 492.775C445.733 492.775 451.499 487.009 451.499 479.897C451.499 472.787 445.733 467.021 438.623 467.021C431.511 467.021 425.743 472.787 425.743 479.897Z" fill="#C3BFBE"/>
<path d="M434.153 471.265L437.133 474.652C437.133 474.652 437.649 475.464 438.352 475.464C439.058 475.464 439.572 474.894 439.572 474.894L442.687 471.265C442.687 471.265 443.122 470.749 442.687 470.398C442.255 470.045 440.733 469.531 438.624 469.531C436.51 469.531 433.395 470.099 434.153 471.265Z" fill="#27262C"/>
<path d="M434.153 488.531L437.133 485.144C437.133 485.144 437.649 484.332 438.352 484.332C439.056 484.332 439.572 484.902 439.572 484.902L442.687 488.531C442.687 488.531 443.122 489.045 442.687 489.398C442.253 489.75 440.733 490.264 438.622 490.264C436.51 490.264 433.395 489.696 434.153 488.531Z" fill="#27262C"/>
<path d="M447.36 475.592L443.975 478.574C443.975 478.574 443.16 479.087 443.16 479.791C443.16 480.497 443.73 481.011 443.73 481.011L447.36 484.126C447.36 484.126 447.875 484.561 448.226 484.126C448.579 483.694 449.095 482.172 449.095 480.063C449.095 477.949 448.527 474.834 447.36 475.592Z" fill="#27262C"/>
<path d="M430.095 475.592L433.48 478.574C433.48 478.574 434.294 479.087 434.294 479.791C434.294 480.497 433.724 481.011 433.724 481.011L430.095 484.126C430.095 484.126 429.579 484.561 429.226 484.126C428.876 483.692 428.36 482.172 428.36 480.061C428.36 477.949 428.928 474.834 430.095 475.592Z" fill="#27262C"/>
<path d="M600.866 478.85C600.866 488.266 593.233 495.896 583.82 495.896C574.404 495.896 566.774 488.266 566.774 478.85C566.774 469.437 574.404 461.804 583.82 461.804C593.233 461.804 600.866 469.437 600.866 478.85Z" fill="#27262C"/>
<path d="M570.982 478.851C570.982 485.963 576.747 491.729 583.86 491.729C590.97 491.729 596.736 485.963 596.736 478.851C596.736 471.74 590.97 465.975 583.86 465.975C576.747 465.975 570.982 471.74 570.982 478.851Z" fill="#C3BFBE"/>
<path d="M579.392 470.218L582.372 473.603C582.372 473.603 582.886 474.418 583.592 474.418C584.295 474.418 584.811 473.848 584.811 473.848L587.927 470.218C587.927 470.218 588.359 469.703 587.927 469.352C587.492 468.999 585.97 468.485 583.861 468.485C581.748 468.485 578.632 469.053 579.392 470.218Z" fill="#27262C"/>
<path d="M579.39 487.485L582.37 484.098C582.37 484.098 582.886 483.285 583.59 483.285C584.295 483.285 584.811 483.856 584.811 483.856L587.925 487.485C587.925 487.485 588.359 487.999 587.925 488.351C587.492 488.704 585.97 489.218 583.861 489.218C581.748 489.218 578.632 488.65 579.39 487.485Z" fill="#27262C"/>
<path d="M592.599 474.546L589.214 477.528C589.214 477.528 588.399 478.041 588.399 478.745C588.399 479.451 588.969 479.965 588.969 479.965L592.599 483.08C592.599 483.08 593.115 483.514 593.465 483.08C593.818 482.648 594.334 481.126 594.334 479.014C594.334 476.903 593.764 473.788 592.599 474.546Z" fill="#27262C"/>
<path d="M575.332 474.546L578.719 477.526C578.719 477.526 579.531 478.041 579.531 478.745C579.531 479.451 578.961 479.965 578.961 479.965L575.332 483.08C575.332 483.08 574.818 483.514 574.465 483.08C574.112 482.646 573.599 481.126 573.599 479.014C573.599 476.903 574.167 473.788 575.332 474.546Z" fill="#27262C"/>
<path d="M501.028 478.329H462.609C461.131 478.329 460.788 477.662 460.757 477.587L460.74 477.535C460.569 476.527 459.851 474.618 458.94 472.198C457.297 467.827 455.042 461.84 454.369 456.691C453.338 448.797 454.831 426.147 454.845 425.917L455.263 425.946C455.249 426.172 453.758 448.787 454.783 456.637C455.451 461.74 457.694 467.698 459.333 472.049C460.241 474.461 460.96 476.372 461.146 477.429C461.202 477.51 461.526 477.911 462.609 477.911H500.909C501.074 477.794 501.656 477.337 501.656 476.62C501.656 475.662 500.971 409.656 500.965 408.99L501.383 408.986C501.389 409.652 502.076 475.66 502.076 476.62C502.076 477.694 501.12 478.276 501.078 478.299L501.028 478.329Z" fill="#CCCCCC"/>
<path d="M464.766 435.26C464.766 436.74 463.567 437.939 462.087 437.939H462.005C460.525 437.939 459.326 436.74 459.326 435.26V427.435C459.326 425.955 460.525 424.756 462.005 424.756H462.087C463.567 424.756 464.766 425.955 464.766 427.435V435.26Z" fill="#D8D8D6"/>
<path d="M500.174 446.885C500.174 448.074 499.247 448.944 498.054 448.944H497.935C496.743 448.944 495.743 448.074 495.743 446.885V441.41C495.743 440.22 496.743 439.159 497.935 439.159H498.054C499.247 439.159 500.174 440.22 500.174 441.41V446.885Z" fill="#D8D8D6"/>
<path d="M499.25 446.392C499.25 446.783 498.935 447.098 498.544 447.098H498.48C498.089 447.098 497.774 446.783 497.774 446.392V440.785C497.774 440.397 498.089 440.082 498.48 440.082H498.544C498.935 440.082 499.25 440.397 499.25 440.785V446.392Z" fill="white"/>
<path d="M510.946 415.964C508.906 415.964 507.248 417.436 507.248 419.243V436.124C507.248 438.059 509.011 439.824 510.946 439.824H614.259C616.139 439.824 617.73 438.195 617.749 436.261L612.526 419.464C611.731 417.196 610.937 415.964 609.029 415.964H510.946ZM614.259 440.241H510.946C508.793 440.241 506.831 438.281 506.831 436.124V419.243C506.831 417.205 508.677 415.547 510.946 415.547H609.029C611.175 415.547 612.084 416.935 612.923 419.33L618.166 436.197V436.23C618.166 438.404 616.377 440.241 614.259 440.241Z" fill="#CCCCCC"/>
<path d="M465.69 434.336C465.69 435.816 464.491 437.015 463.011 437.015H462.929C461.449 437.015 460.25 435.816 460.25 434.336V426.511C460.25 425.031 461.449 423.832 462.929 423.832H463.011C464.491 423.832 465.69 425.031 465.69 426.511V434.336Z" fill="#E5E5E3"/>
<path d="M593.137 456.454H592.652C591.326 456.454 590.251 455.38 590.251 454.056C590.251 452.73 591.326 451.655 592.652 451.655H593.137C594.463 451.655 595.536 452.73 595.536 454.056C595.536 455.38 594.463 456.454 593.137 456.454Z" fill="#B32D24"/>
<path d="M592.992 455.63H592.681C591.829 455.63 591.138 454.941 591.138 454.091C591.138 453.237 591.829 452.547 592.681 452.547H592.992C593.842 452.547 594.533 453.237 594.533 454.091C594.533 454.941 593.842 455.63 592.992 455.63Z" fill="#243145"/>
<path d="M661.235 490.358C659.667 490.358 658.399 489.091 658.399 487.522V410.124C658.399 408.555 659.667 407.286 661.235 407.286C662.801 407.286 664.071 408.555 664.071 410.124V487.522C664.071 489.091 662.801 490.358 661.235 490.358Z" fill="#737431"/>
<path d="M651.639 490.358C646.727 490.358 642.747 486.378 642.747 481.467V416.179C642.747 411.268 646.727 407.286 651.639 407.286C656.552 407.286 660.532 411.268 660.532 416.179V481.467C660.532 486.378 656.552 490.358 651.639 490.358Z" fill="#999A41"/>
<path d="M667.159 490.551H639.983V489.335H667.159V490.551Z" fill="#3A3A19"/>
<path d="M660.533 426.176H640.793V407.284H660.533V426.176Z" fill="#737431"/>
<path d="M654.677 426.177H636.614V416.318C636.614 411.33 640.657 407.285 645.646 407.285C650.632 407.285 654.677 411.33 654.677 416.318V426.177Z" fill="#999A41"/>
<path d="M642.748 426.177H660.533V443.521L642.748 429.268V426.177Z" fill="#737431"/>
<path d="M643.961 424.04L647.686 418.381L644.967 418.874L647.193 415.76H645.069L643.604 420.442L645.66 419.901L643.961 424.04Z" fill="#FDB735"/>
<path d="M651.639 410.501V413.968C651.639 414.258 651.405 414.492 651.115 414.492H640.484C640.195 414.492 639.959 414.258 639.959 413.968V410.501C639.959 410.211 640.195 409.977 640.484 409.977H651.115C651.405 409.977 651.639 410.211 651.639 410.501Z" fill="#737431"/>
<g opacity="0.110001">
<g opacity="0.110001">
<path opacity="0.110001" d="M646.369 414.492H644.285L648.09 409.977H650.172L646.369 414.492Z" fill="white"/>
</g>
</g>
<g opacity="0.110001">
<g opacity="0.110001">
<path opacity="0.110001" d="M645.672 409.977L641.869 414.492H640.485C640.194 414.492 639.96 414.258 639.96 413.968V410.501C639.96 410.211 640.194 409.977 640.485 409.977H645.672Z" fill="white"/>
</g>
</g>
<path d="M648.814 428.907H644.02V426.176H648.814V428.907Z" fill="#3A3A19"/>
<path d="M640.619 490.596H623.886C620.34 490.596 617.455 487.713 617.455 484.165C617.455 481.319 615.139 479.001 612.291 479.001H611.787C608.941 479.001 606.625 481.319 606.625 484.165C606.625 487.713 603.739 490.596 600.194 490.596H598.636C595.088 490.596 592.202 487.713 592.202 484.165V454.091H593.47V484.165C593.47 487.013 595.785 489.331 598.636 489.331H600.194C603.04 489.331 605.356 487.013 605.356 484.165C605.356 480.619 608.242 477.733 611.787 477.733H612.291C615.838 477.733 618.724 480.619 618.724 484.165C618.724 487.013 621.04 489.331 623.886 489.331H640.619C643.465 489.331 645.783 487.013 645.783 484.165V428.907H647.05V484.165C647.05 487.713 644.165 490.596 640.619 490.596Z" fill="#3A3A19"/>
<path d="M650.917 428.907V484.165C650.917 486.276 649.898 488.151 648.321 489.327H644.669C647.432 489.231 649.651 486.953 649.651 484.165V428.907H650.917Z" fill="#3A3A19"/>
<path d="M144.748 324.223C126.716 324.223 112.097 338.141 112.097 355.31V409.883C112.097 427.052 126.716 440.97 144.748 440.97C162.781 440.97 177.401 427.052 177.401 409.883V355.31C177.401 338.141 162.781 324.223 144.748 324.223Z" fill="#8EAD28"/>
<path d="M166.979 400.715C166.979 398.919 165.524 397.461 163.728 397.461C161.932 397.461 160.475 398.919 160.475 400.715C160.475 413.177 154.791 419.955 148.505 421.86V387.407C148.505 385.333 146.824 383.65 144.749 383.65C142.673 383.65 140.99 385.333 140.99 387.407V421.86C134.704 419.955 129.02 413.177 129.02 400.715C129.02 398.919 127.563 397.461 125.767 397.461C123.973 397.461 122.516 398.919 122.516 400.715C122.516 409.214 124.836 416.424 129.227 421.561C132.422 425.297 136.511 427.694 140.99 428.561V491.279H148.505V428.552C158.194 426.606 166.979 417.138 166.979 400.715Z" fill="#BF692E"/>
<g opacity="0.199997">
<g opacity="0.199997">
<path opacity="0.199997" d="M285.967 210.133C285.967 207.615 288.01 205.574 290.528 205.574C293.046 205.574 295.086 207.615 295.086 210.133C295.086 212.651 293.046 214.691 290.528 214.691C288.01 214.691 285.967 212.651 285.967 210.133Z" fill="white"/>
</g>
</g>
<g opacity="0.199997">
<g opacity="0.199997">
<path opacity="0.199997" d="M200.572 117.452C200.572 114.374 203.067 111.879 206.145 111.879C209.223 111.879 211.719 114.374 211.719 117.452C211.719 120.53 209.223 123.025 206.145 123.025C203.067 123.025 200.572 120.53 200.572 117.452Z" fill="white"/>
</g>
</g>
<path d="M306.759 151.437C306.762 170.477 295.333 186.836 278.972 194.051C278.531 194.247 278.105 194.472 277.707 194.727C276.612 195.408 275.677 196.293 274.938 197.319C273.983 198.64 273.348 200.2 273.131 201.871L272.421 207.344C270.195 208.06 267.928 208.576 265.645 208.889C264.603 209.035 263.555 209.138 262.505 209.194C261.742 209.242 260.984 209.261 260.224 209.261H260.155C259.414 209.261 258.673 209.24 257.938 209.194C257.372 209.194 256.804 209.154 256.246 209.081C255.309 208.956 254.434 208.854 253.54 208.695H253.536C251.671 208.382 249.827 207.929 248.019 207.348L247.3 201.873C247.292 201.8 247.282 201.733 247.273 201.677C247.035 200.079 246.419 198.592 245.498 197.323C245.208 196.916 244.876 196.525 244.519 196.172C244.519 196.166 244.515 196.166 244.515 196.162C244.515 196.162 244.515 196.16 244.511 196.16C244.506 196.156 244.496 196.139 244.483 196.118C243.945 195.583 243.358 195.116 242.709 194.717C242.312 194.464 241.896 194.247 241.462 194.059C241.172 193.925 240.879 193.794 240.591 193.662C240.305 193.526 240.021 193.395 239.739 193.251C237.467 192.14 235.306 190.854 233.268 189.398C230.775 187.625 228.471 185.619 226.379 183.405L226.375 183.399C218.644 175.221 213.846 164.24 213.67 152.134C213.605 147.766 214.155 143.516 215.243 139.476C217.097 132.572 220.511 126.268 225.088 120.997C226.087 119.845 227.139 118.744 228.239 117.698C229.806 116.213 231.482 114.827 233.245 113.566C233.249 113.561 233.255 113.557 233.255 113.557C235.786 111.753 238.503 110.183 241.376 108.901C242.802 108.262 244.273 107.696 245.772 107.201C246.311 107.023 246.849 106.856 247.394 106.702H247.399C249.712 106.034 252.093 105.541 254.536 105.242C254.868 105.202 255.202 105.161 255.538 105.129H255.543C256.681 105.01 257.829 104.937 258.992 104.91C259.09 104.906 259.188 104.906 259.285 104.902C259.579 104.893 259.88 104.887 260.174 104.887C260.314 104.887 260.45 104.887 260.59 104.891C262.018 104.91 263.45 104.981 264.847 105.121C265.192 105.154 265.532 105.192 265.873 105.234C268.283 105.524 270.636 106.002 272.918 106.654H272.922C280.187 108.711 286.73 112.486 292.084 117.521C298.3 123.368 302.909 130.898 305.179 139.388V139.392C306.21 143.237 306.757 147.273 306.759 151.437Z" fill="#A6C933"/>
<path d="M257.938 209.195C257.654 209.195 257.372 209.186 257.088 209.165C256.808 209.149 256.524 209.119 256.244 209.082C255.309 208.959 254.434 208.854 253.54 208.698H253.536C251.671 208.382 249.827 207.929 248.019 207.349L247.3 201.875C247.292 201.8 247.279 201.736 247.273 201.677C247.035 200.08 246.417 198.593 245.498 197.323C245.208 196.916 244.876 196.528 244.519 196.173C244.519 196.168 244.515 196.168 244.515 196.164C244.515 196.164 244.515 196.16 244.511 196.16C244.506 196.156 244.496 196.139 244.483 196.118C243.945 195.584 243.358 195.116 242.708 194.717C242.312 194.467 241.896 194.247 241.462 194.059C241.343 194.005 241.22 193.953 241.096 193.903C240.888 193.692 240.716 193.516 240.505 193.301C232.564 170.586 223.079 130.317 245.726 107.247C245.759 107.218 245.772 107.201 245.772 107.201C246.311 107.026 246.847 106.859 247.394 106.702H247.398C249.712 106.036 252.093 105.541 254.536 105.245C254.868 105.203 255.2 105.163 255.538 105.13H255.542C255.542 105.13 255.542 105.134 255.538 105.138C255.169 105.81 236.839 139.721 257.938 209.195Z" fill="#8EAD28"/>
<path d="M233.267 189.397C233.267 189.397 233.263 189.393 233.254 189.389C221.573 181.078 213.897 167.513 213.669 152.134C213.604 147.765 214.156 143.516 215.242 139.477C217.501 131.064 222.076 123.553 228.241 117.7C229.803 116.219 231.479 114.832 233.235 113.573C233.231 113.575 233.227 113.586 233.221 113.594C232.21 114.761 207.937 143.53 233.267 189.397Z" fill="#8EAD28"/>
<path d="M262.503 209.195C263.067 209.195 263.633 209.157 264.195 209.082C265.13 208.954 266.005 208.854 266.897 208.698H266.899C268.764 208.38 270.608 207.929 272.418 207.347L273.134 201.871C273.143 201.798 273.155 201.731 273.162 201.673C273.4 200.078 274.02 198.589 274.936 197.319C275.227 196.912 275.559 196.523 275.914 196.168C275.914 196.164 275.918 196.164 275.918 196.16C275.918 196.16 275.918 196.156 275.922 196.156C275.926 196.152 275.939 196.135 275.953 196.114C276.488 195.582 277.077 195.112 277.724 194.711C278.232 194.394 278.768 194.128 279.338 193.899C279.543 193.688 279.721 193.508 279.927 193.299C287.867 170.565 297.351 130.253 274.64 107.199C274.103 107.022 273.562 106.855 273.015 106.698H273.011C270.7 106.032 268.317 105.537 265.876 105.243C265.542 105.203 265.21 105.163 264.874 105.13H264.869C264.869 105.13 283.792 139.017 262.503 209.195Z" fill="#8EAD28"/>
<path d="M287.246 189.39C298.932 181.077 306.61 167.506 306.831 152.122C306.894 147.754 306.345 143.504 305.257 139.466C302.995 131.052 298.42 123.543 292.252 117.69C290.683 116.208 289.007 114.821 287.244 113.56C287.768 114.159 312.829 143.034 287.246 189.39Z" fill="#8EAD28"/>
<path d="M271.691 209.615H248.616C247.833 209.615 247.198 208.98 247.198 208.199C247.198 207.416 247.833 206.781 248.616 206.781H271.691C272.474 206.781 273.108 207.416 273.108 208.199C273.108 208.98 272.474 209.615 271.691 209.615Z" fill="white"/>
<path d="M267.247 233.505H264.115L283.046 165.764C293.042 167.18 299.616 169.163 302.241 170.059L267.247 233.505ZM218.085 170.116C220.651 169.251 227.283 167.255 237.267 165.816L256.203 233.507H253.07L218.085 170.116ZM260.627 233.507L260.617 164.214C268.94 164.233 276.191 164.826 282.24 165.647L263.275 233.505L260.627 233.507ZM259.817 233.507H257.042L238.071 165.695C244.177 164.851 251.479 164.237 259.809 164.214L259.817 233.507ZM304.321 168.658C303.667 168.395 288.004 162.185 260.214 162.189C232.869 162.193 216.283 168.602 216.118 168.666C215.6 168.871 215.345 169.458 215.548 169.978C215.702 170.375 216.084 170.619 216.487 170.619C216.61 170.619 216.738 170.596 216.857 170.548C216.871 170.542 217.053 170.475 217.31 170.383L252.147 233.507H251.034C250.844 233.507 250.69 233.661 250.69 233.853V233.937C250.69 234.127 250.844 234.284 251.034 234.284H251.515L251.517 239.968C251.517 243.822 254.643 246.95 258.5 246.946H261.951C263.081 246.946 264.15 246.677 265.094 246.199C267.37 245.05 268.932 242.691 268.932 239.963L268.934 234.279H269.412C269.602 234.279 269.757 234.125 269.757 233.935V233.851C269.757 233.659 269.602 233.505 269.412 233.505H268.17L303.013 170.329C303.335 170.443 303.548 170.525 303.565 170.533C304.083 170.74 304.669 170.491 304.878 169.974C305.087 169.458 304.839 168.867 304.321 168.658Z" fill="#3E7B7A"/>
<path d="M759.148 222.14C759.148 235.226 751.294 246.469 740.049 251.429C739.746 251.564 739.452 251.719 739.178 251.894C738.427 252.362 737.783 252.97 737.274 253.676C736.618 254.584 736.184 255.655 736.036 256.804L735.545 260.565C734.016 261.057 732.459 261.412 730.888 261.627C730.17 261.728 729.452 261.799 728.729 261.836C728.207 261.87 727.685 261.884 727.163 261.884H727.115C726.607 261.882 726.096 261.868 725.591 261.836C725.2 261.836 724.812 261.811 724.427 261.759C723.784 261.673 723.183 261.602 722.567 261.496H722.565C721.285 261.279 720.019 260.968 718.773 260.569L718.282 256.806C718.276 256.756 718.267 256.71 718.261 256.67C718.098 255.572 717.674 254.551 717.042 253.678C716.841 253.398 716.613 253.129 716.369 252.886C716.369 252.884 716.367 252.884 716.367 252.88C716.367 252.88 716.367 252.878 716.363 252.878C716.361 252.876 716.352 252.863 716.344 252.851C715.972 252.483 715.571 252.16 715.125 251.886C714.851 251.715 714.565 251.564 714.268 251.433C714.066 251.343 713.865 251.253 713.669 251.161C713.473 251.07 713.277 250.98 713.082 250.88C711.522 250.115 710.036 249.232 708.637 248.232C706.922 247.012 705.337 245.634 703.901 244.11L703.898 244.108C698.584 238.486 695.287 230.939 695.164 222.62C695.12 219.617 695.5 216.696 696.247 213.919C697.521 209.174 699.868 204.841 703.013 201.218C703.698 200.427 704.423 199.671 705.179 198.953C706.256 197.931 707.409 196.979 708.62 196.111C708.624 196.108 708.626 196.104 708.626 196.104C710.366 194.864 712.235 193.786 714.208 192.905C715.187 192.467 716.2 192.078 717.229 191.736C717.601 191.615 717.969 191.5 718.345 191.393H718.347C719.938 190.934 721.575 190.596 723.254 190.391C723.481 190.364 723.709 190.335 723.943 190.312H723.945C724.728 190.232 725.517 190.182 726.315 190.163C726.384 190.159 726.451 190.159 726.516 190.157C726.72 190.151 726.925 190.147 727.127 190.147C727.226 190.147 727.317 190.147 727.414 190.149C728.395 190.161 729.381 190.209 730.339 190.307C730.577 190.33 730.811 190.355 731.045 190.385C732.701 190.583 734.317 190.913 735.887 191.36H735.889C740.884 192.774 745.38 195.369 749.06 198.829C753.334 202.847 756.5 208.024 758.06 213.858V213.862C758.768 216.504 759.146 219.279 759.148 222.14Z" fill="white"/>
<path d="M725.59 261.838C725.396 261.838 725.2 261.831 725.008 261.817C724.816 261.806 724.619 261.785 724.427 261.76C723.786 261.675 723.185 261.604 722.569 261.495H722.567C721.284 261.28 720.019 260.967 718.772 260.57L718.282 256.807C718.275 256.755 718.267 256.709 718.261 256.671C718.098 255.573 717.674 254.552 717.041 253.679C716.843 253.397 716.613 253.13 716.369 252.888C716.369 252.883 716.367 252.883 716.367 252.881C716.367 252.881 716.367 252.879 716.363 252.879C716.36 252.875 716.352 252.865 716.344 252.85C715.974 252.485 715.571 252.161 715.124 251.887C714.851 251.714 714.567 251.566 714.268 251.434C714.187 251.397 714.101 251.361 714.017 251.328C713.873 251.182 713.754 251.061 713.612 250.914C708.152 235.303 701.632 207.624 717.198 191.769C717.221 191.75 717.229 191.737 717.229 191.737C717.601 191.616 717.97 191.501 718.344 191.395H718.346C719.938 190.935 721.575 190.595 723.254 190.392C723.481 190.363 723.711 190.336 723.943 190.313H723.945C723.945 190.313 723.945 190.317 723.943 190.319C723.688 190.781 711.092 214.089 725.59 261.838Z" fill="#F0D628"/>
<path d="M708.636 248.232L708.627 248.226C700.596 242.515 695.321 233.189 695.165 222.621C695.119 219.618 695.499 216.697 696.247 213.921C697.8 208.141 700.941 202.977 705.18 198.953C706.253 197.936 707.406 196.984 708.615 196.118C708.611 196.12 708.609 196.126 708.602 196.132C707.907 196.936 691.227 216.707 708.636 248.232Z" fill="#F0D628"/>
<path d="M728.729 261.838C729.119 261.838 729.505 261.811 729.892 261.76C730.535 261.673 731.134 261.604 731.748 261.495H731.752C733.034 261.278 734.3 260.967 735.544 260.568L736.035 256.805C736.041 256.755 736.05 256.707 736.056 256.667C736.219 255.571 736.645 254.548 737.275 253.675C737.474 253.395 737.701 253.128 737.948 252.883C737.948 252.881 737.95 252.881 737.95 252.877C737.95 252.877 737.95 252.875 737.952 252.875C737.956 252.873 737.962 252.863 737.975 252.848C738.343 252.483 738.748 252.159 739.192 251.883C739.541 251.664 739.909 251.482 740.301 251.324C740.441 251.18 740.562 251.056 740.704 250.912C746.165 235.288 752.682 207.58 737.071 191.735C736.701 191.614 736.332 191.499 735.956 191.391H735.952C734.362 190.931 732.725 190.593 731.046 190.392C730.817 190.363 730.591 190.336 730.357 190.313L730.355 190.315C730.355 190.315 743.363 213.603 728.729 261.838Z" fill="#F0D628"/>
<path d="M745.733 248.227C753.767 242.514 759.044 233.184 759.194 222.613C759.24 219.608 758.86 216.689 758.114 213.914C756.561 208.132 753.414 202.97 749.175 198.946C748.097 197.927 746.945 196.975 745.733 196.108C746.095 196.519 763.318 216.365 745.733 248.227Z" fill="#F0D628"/>
<path d="M735.043 262.127H719.184C718.645 262.127 718.208 261.691 718.208 261.154C718.208 260.615 718.645 260.179 719.184 260.179H735.043C735.582 260.179 736.019 260.615 736.019 261.154C736.019 261.691 735.582 262.127 735.043 262.127Z" fill="white"/>
<path d="M731.989 278.546H729.836L742.847 231.987C749.717 232.96 754.236 234.324 756.04 234.94L731.989 278.546ZM698.2 234.978C699.962 234.385 704.523 233.013 711.385 232.023L724.398 278.548H722.245L698.2 234.978ZM727.439 278.546L727.432 230.922C733.154 230.935 738.134 231.344 742.294 231.908L729.257 278.546H727.439ZM726.885 278.546H724.977L711.936 231.941C716.133 231.361 721.153 230.937 726.879 230.922L726.885 278.546ZM757.471 233.977C757.022 233.796 746.255 229.527 727.157 229.53C708.361 229.532 696.961 233.938 696.847 233.982C696.49 234.124 696.316 234.527 696.454 234.884C696.563 235.157 696.826 235.324 697.101 235.324C697.187 235.324 697.273 235.308 697.356 235.274C697.367 235.27 697.49 235.224 697.665 235.161L721.61 278.548H720.846C720.717 278.548 720.61 278.654 720.61 278.786V278.844C720.61 278.974 720.717 279.08 720.846 279.08H721.176V282.987C721.176 285.637 723.327 287.788 725.975 287.784H728.351C729.126 287.784 729.859 287.598 730.508 287.27C732.072 286.481 733.148 284.858 733.148 282.985V279.078H733.478C733.607 279.078 733.714 278.972 733.714 278.842V278.784C733.714 278.652 733.607 278.546 733.478 278.546H732.624L756.571 235.126C756.792 235.205 756.938 235.259 756.949 235.264C757.306 235.408 757.709 235.237 757.855 234.882C757.997 234.524 757.826 234.121 757.471 233.977Z" fill="#3E7B7A"/>
</g>
<defs>
<clipPath id="clip0">
<rect y="-287" width="1134.65" height="1008.88" fill="white"/>
</clipPath>
</defs>
</svg>
